{
  "accessors": [
    {
      "bufferView": 0,
      "byteOffset": 0,
      "componentType": 5126,
      "count": 264,
      "max": [
        1.133028,
        1,
        1.133028
      ],
      "min": [
        -1.133028,
        0,
        -1.133028
      ],
      "normalized": false,
      "type": "VEC3"
    },
    {
      "bufferView": 1,
      "byteOffset": 0,
      "componentType": 5126,
      "count": 264,
      "normalized": false,
      "type": "VEC3"
    },
    {
      "bufferView": 2,
      "byteOffset": 0,
      "componentType": 5126,
      "count": 264,
      "normalized": false,
      "type": "VEC2"
    },
    {
      "bufferView": 3,
      "byteOffset": 0,
      "componentType": 5125,
      "count": 630,
      "normalized": false,
      "type": "SCALAR"
    },
    {
      "bufferView": 4,
      "byteOffset": 0,
      "componentType": 5125,
      "count": 30,
      "normalized": false,
      "type": "SCALAR"
    }
  ],
  "asset": {
    "generator": "UniGLTF-2.34.0",
    "version": "2.0"
  },
  "buffers": [
    {
      "uri": "blockLarge_data.bin",
      "byteLength": 11088
    }
  ],
  "bufferViews": [
    {
      "buffer": 0,
      "byteLength": 3168,
      "byteOffset": 0,
      "target": 34962
    },
    {
      "buffer": 0,
      "byteLength": 3168,
      "byteOffset": 3168,
      "target": 34962
    },
    {
      "buffer": 0,
      "byteLength": 2112,
      "byteOffset": 6336,
      "target": 34962
    },
    {
      "buffer": 0,
      "byteLength": 2520,
      "byteOffset": 8448,
      "target": 34963
    },
    {
      "buffer": 0,
      "byteLength": 120,
      "byteOffset": 10968,
      "target": 34963
    }
  ],
  "extensions": {
    "VRM": {
      "blendShapeMaster": {
        "blendShapeGroups": []
      },
      "exporterVersion": "UniVRM-0.98.0",
      "firstPerson": {
        "firstPersonBoneOffset": {
          "x": 0,
          "y": 0,
          "z": 0
        },
        "lookAtHorizontalInner": {
          "xRange": 90,
          "yRange": 10
        },
        "lookAtHorizontalOuter": {
          "xRange": 90,
          "yRange": 10
        },
        "lookAtTypeName": "Bone",
        "lookAtVerticalDown": {
          "xRange": 90,
          "yRange": 10
        },
        "lookAtVerticalUp": {
          "xRange": 90,
          "yRange": 10
        },
        "meshAnnotations": []
      },
      "humanoid": {
        "armStretch": 0.05,
        "feetSpacing": 0,
        "hasTranslationDoF": false,
        "humanBones": [],
        "legStretch": 0.05,
        "lowerArmTwist": 0.5,
        "lowerLegTwist": 0.5,
        "upperArmTwist": 0.5,
        "upperLegTwist": 0.5
      },
      "materialProperties": [
        {
          "floatProperties": {},
          "keywordMap": {},
          "name": "grass",
          "renderQueue": 2000,
          "shader": "VRM_USE_GLTFSHADER",
          "tagMap": {},
          "textureProperties": {},
          "vectorProperties": {}
        },
        {
          "floatProperties": {},
          "keywordMap": {},
          "name": "dirt",
          "renderQueue": 2000,
          "shader": "VRM_USE_GLTFSHADER",
          "tagMap": {},
          "textureProperties": {},
          "vectorProperties": {}
        }
      ],
      "meta": {
        "allowedUserName": "OnlyAuthor",
        "commercialUssageName": "Disallow",
        "licenseName": "Redistribution_Prohibited",
        "sexualUssageName": "Disallow",
        "violentUssageName": "Disallow"
      },
      "secondaryAnimation": {
        "boneGroups": [],
        "colliderGroups": []
      },
      "specVersion": "0.0"
    }
  },
  "extensionsUsed": [
    "KHR_materials_unlit",
    "KHR_texture_transform",
    "VRM"
  ],
  "materials": [
    {
      "alphaMode": "OPAQUE",
      "doubleSided": false,
      "name": "grass",
      "pbrMetallicRoughness": {
        "baseColorFactor": [
          0.117056184,
          0.707756639,
          0.444562048,
          1
        ],
        "metallicFactor": 1,
        "roughnessFactor": 1
      }
    },
    {
      "alphaMode": "OPAQUE",
      "doubleSided": false,
      "name": "dirt",
      "pbrMetallicRoughness": {
        "baseColorFactor": [
          0.745404363,
          0.291770637,
          0.11443536,
          1
        ],
        "metallicFactor": 1,
        "roughnessFactor": 1
      }
    }
  ],
  "meshes": [
    {
      "extras": {
        "targetNames": []
      },
      "name": "Mesh blockLarge",
      "primitives": [
        {
          "attributes": {
            "NORMAL": 1,
            "POSITION": 0,
            "TEXCOORD_0": 2
          },
          "extras": {
            "targetNames": []
          },
          "indices": 3,
          "material": 0,
          "mode": 4
        },
        {
          "attributes": {
            "NORMAL": 1,
            "POSITION": 0,
            "TEXCOORD_0": 2
          },
          "extras": {
            "targetNames": []
          },
          "indices": 4,
          "material": 1,
          "mode": 4
        }
      ]
    }
  ],
  "nodes": [
    {
      "mesh": 0,
      "name": "blockLarge"
    }
  ],
  "scene": 0,
  "scenes": [
    {
      "nodes": [
        0
      ]
    }
  ],
  "extensionUsed": [
    "VRM"
  ]
}